Coordinates
version=1
nRows=8
nColumns=34
inDegrees=yes

Units are S.I. units (second, meters, Newtons, ...)
If the header above contains a line with 'inDegrees', this indicates whether rotational values are in degrees (yes) or radians (no).

endheader
time	pelvis_tilt	pelvis_list	pelvis_rotation	pelvis_tx	pelvis_ty	pelvis_tz	hip_flexion_r	hip_adduction_r	hip_rotation_r	knee_angle_r	ankle_angle_r	subtalar_angle_r	mtp_angle_r	hip_flexion_l	hip_adduction_l	hip_rotation_l	knee_angle_l	ankle_angle_l	subtalar_angle_l	mtp_angle_l	lumbar_extension	lumbar_bending	lumbar_rotation	arm_flex_r	arm_add_r	arm_rot_r	elbow_flex_r	pro_sup_r	arm_flex_l	arm_add_l	arm_rot_l	elbow_flex_l	pro_sup_l
      0.00000000	      2.59585624	      0.79869731	      1.36028168	     -0.66494170	      1.15962660	     -0.02756498	     -6.12246084	     -5.30363409	     -7.06670782	      6.41205567	      4.63146598	    -19.22139502	      0.00000000	     -6.96845047	     -2.53463792	     -6.19929555	      3.76185970	      2.33252740	    -15.82521606	      0.00000000	     -5.44194202	      3.30636430	     -4.14580351	     -2.52730149	     -8.94997922	     10.87392485	     26.50268022	     70.78898158	     43.16999709	    -54.13096761	    -18.12425420	    102.13780558	     64.54003006
      0.01666670	      0.75950819	      0.36956796	      1.58895607	     -0.66352922	      1.15336968	     -0.02848673	     -4.74964574	     -4.82744065	     -8.01930625	      5.87005475	      7.33663549	    -15.78940368	      0.00000000	     -4.70441558	     -3.02846187	     -7.80610003	      3.10168872	      3.01792713	    -12.70028838	      0.00000000	     -2.64068789	      2.97055356	     -2.43939943	     -6.97934311	     -7.47822847	     -5.51210995	     34.90934565	     80.76603629	     58.32637838	    -56.34268353	     -3.80905278	     96.52220097	     65.88706111
      0.03333330	     -0.24564912	      0.42939320	      1.30554037	     -0.66283632	      1.15073269	     -0.02776768	     -3.95277597	     -5.00276158	     -8.58063206	      5.47696885	      7.96083682	    -15.24796491	      0.00000000	     -3.43752438	     -2.97884967	     -9.33687727	      3.22784983	      4.67711242	     -9.41821566	      0.00000000	     -0.84045553	      2.43582223	     -3.21438722	     -6.95550072	     -7.62175465	     -4.84284652	     34.55514678	     83.79838966	     63.92723446	    -59.46540949	      2.96811409	     95.26226060	     68.47663836
      0.05000000	     -0.63763235	      0.61913405	      1.14434883	     -0.66288475	      1.14948816	     -0.02758805	     -3.62088152	     -5.26768850	     -8.95914530	      5.16030333	      8.54942140	    -14.28361486	      0.00000000	     -3.50536414	     -2.71294958	     -9.70820362	      2.28669007	      4.51170467	     -8.51561193	      0.00000000	     -0.06230919	      1.60869148	     -3.12351311	     -8.01272180	     -6.52830650	     -6.63751901	     35.49109223	     86.36284091	     72.31108616	    -59.75620478	     11.41225446	     92.89597344	     72.51265598
      0.06666670	     -1.06879451	      0.47952621	      0.79988518	     -0.66351143	      1.14914265	     -0.02757005	     -3.18302127	     -5.12526402	     -8.88592520	      4.92151837	      8.44294184	    -14.26271793	      0.00000000	     -3.34269991	     -2.83052509	    -10.44498176	      1.84758630	      4.94347620	     -7.16058590	      0.00000000	      0.78742718	      1.70499199	     -2.03629696	     -9.04219898	     -6.18280576	     -8.37519389	     36.40792303	     88.55423513	     78.77183127	    -57.79876089	     16.00914730	     89.07932829	     75.61085534
      0.08333330	     -0.87434798	      0.36632638	      0.68587191	     -0.66456429	      1.15012902	     -0.02752899	     -3.41393549	     -4.95174926	     -9.13201855	      4.75226638	      8.70246184	    -13.79139050	      0.00000000	     -3.78366327	     -2.93114326	    -10.45986835	      1.45640461	      4.70882141	     -7.33163035	      0.00000000	      0.85877626	      1.88730539	     -2.32052823	     -8.63504788	     -5.61278841	     -9.46025401	     36.56472009	     90.10545970	     83.85934395	    -57.55413728	     18.65593316	     86.87663007	     77.29231726
      0.10000000	     -1.27025755	      0.35898101	      0.50402135	     -0.66352665	      1.14934818	     -0.02789696	     -2.95212120	     -4.93810952	     -8.93230224	      4.74171726	      9.00219159	    -13.79654924	      0.00000000	     -3.47150075	     -2.95434146	    -11.11212362	      1.44391769	      5.02865225	     -6.49074466	      0.00000000	      1.53093072	      2.03761897	     -1.93464530	     -8.85347141	     -5.60160072	    -10.15941316	     36.99344524	     91.66203005	     88.91796982	    -57.23242636	     21.84536827	     85.62862903	     78.49829829
      0.11666670	     -1.44567191	      0.11894252	      0.37462948	     -0.65926694	      1.14878166	     -0.02981259	     -2.85841327	     -4.71256061	     -8.97210101	      4.67629002	      8.91022962	    -13.63071294	      0.00000000	     -3.50777234	     -3.16190026	    -11.25887227	      1.33091416	      4.96834267	     -6.53534392	      0.00000000	      2.07374484	      2.92755280	     -1.90465264	     -8.92237636	     -5.95782170	    -10.41711752	     36.93497603	     91.78701139	     91.13755966	    -57.38682234	     21.09068991	     85.81104958	     78.53456493
